HIERARCHY
ROOT root
{
  OFFSET 0 93.2929 0
  CHANNELS 6 Xposition Yposition Zposition Zrotation Xrotation Yrotation
  JOINT torso_1
  {
    OFFSET 0 5.07867 -1.15138
    CHANNELS 6 Xposition Yposition Zposition Zrotation Xrotation Yrotation
    JOINT torso_2
    {
      OFFSET 0 5.61661 1.07143
      CHANNELS 6 Xposition Yposition Zposition Zrotation Xrotation Yrotation
      JOINT torso_3
      {
        OFFSET -1.02604e-17 5.98978 0.11501
        CHANNELS 6 Xposition Yposition Zposition Zrotation Xrotation Yrotation
        JOINT torso_4
        {
          OFFSET -1.10457e-17 6.50583 -0.443523
          CHANNELS 6 Xposition Yposition Zposition Zrotation Xrotation Yrotation
          JOINT torso_5
          {
            OFFSET -1.97295e-17 7.60548 -1.50593
            CHANNELS 6 Xposition Yposition Zposition Zrotation Xrotation Yrotation
            JOINT torso_6
            {
              OFFSET -2.53307e-17 9.49737 -0.914492
              CHANNELS 6 Xposition Yposition Zposition Zrotation Xrotation Yrotation
              JOINT torso_7
              {
                OFFSET -2.90401e-17 10.5513 1.57691
                CHANNELS 6 Xposition Yposition Zposition Zrotation Xrotation Yrotation
                JOINT neck_1
                {
                  OFFSET -1.29193e-17 4.78644 0.715339
                  CHANNELS 6 Xposition Yposition Zposition Zrotation Xrotation Yrotation
                  JOINT neck_2
                  {
                    OFFSET -1.8116e-17 4.82109 0.421791
                    CHANNELS 6 Xposition Yposition Zposition Zrotation Xrotation Yrotation
                    JOINT head
                    {
                      OFFSET -2.00958e-17 4.83041 0.765062
                      CHANNELS 6 Xposition Yposition Zposition Zrotation Xrotation Yrotation
                      End Site
                      {
                        OFFSET 0 0.1 0
                      }
                    }
                  }
                }
                JOINT l_shoulder
                {
                  OFFSET 1.23299 -7.60731 7.53374
                  CHANNELS 6 Xposition Yposition Zposition Zrotation Xrotation Yrotation
                  JOINT l_up_arm
                  {
                    OFFSET 12.9547 3.2495 -3.26872
                    CHANNELS 6 Xposition Yposition Zposition Zrotation Xrotation Yrotation
                    JOINT l_low_arm
                    {
                      OFFSET 29.2081 0.0598081 0.137039
                      CHANNELS 6 Xposition Yposition Zposition Zrotation Xrotation Yrotation
                      JOINT l_hand
                      {
                        OFFSET 24.234 0.0496219 0.113701
                        CHANNELS 6 Xposition Yposition Zposition Zrotation Xrotation Yrotation
                        End Site
                        {
                          OFFSET 0.1 0 0
                        }
                      }
                    }
                  }
                }
                JOINT r_shoulder
                {
                  OFFSET -1.23299 -7.60729 7.53365
                  CHANNELS 6 Xposition Yposition Zposition Zrotation Xrotation Yrotation
                  JOINT r_up_arm
                  {
                    OFFSET -12.9547 3.2495 -3.26872
                    CHANNELS 6 Xposition Yposition Zposition Zrotation Xrotation Yrotation
                    JOINT r_low_arm
                    {
                      OFFSET -29.2081 0.0598081 0.137039
                      CHANNELS 6 Xposition Yposition Zposition Zrotation Xrotation Yrotation
                      JOINT r_hand
                      {
                        OFFSET -24.234 0.0496218 0.113702
                        CHANNELS 6 Xposition Yposition Zposition Zrotation Xrotation Yrotation
                        End Site
                        {
                          OFFSET -0.1 0 0
                        }
                      }
                    }
                  }
                }
              }
            }
          }
        }
      }
    }
  }
  JOINT l_up_leg
  {
    OFFSET 9.23673 -4.20556 2.0327
    CHANNELS 6 Xposition Yposition Zposition Zrotation Xrotation Yrotation
    JOINT l_low_leg
    {
      OFFSET -0.852353 -38.7721 -0.655187
      CHANNELS 6 Xposition Yposition Zposition Zrotation Xrotation Yrotation
      JOINT l_foot
      {
        OFFSET -2.32622 -40.4017 -6.04875
        CHANNELS 6 Xposition Yposition Zposition Zrotation Xrotation Yrotation
        JOINT l_toes
        {
          OFFSET 0.779096 -9.8844 12.4959
          CHANNELS 6 Xposition Yposition Zposition Zrotation Xrotation Yrotation
          End Site
          {
            OFFSET 0 0 0.1
          }
        }
      }
    }
  }
  JOINT r_up_leg
  {
    OFFSET -9.23673 -4.20556 2.0327
    CHANNELS 6 Xposition Yposition Zposition Zrotation Xrotation Yrotation
    JOINT r_low_leg
    {
      OFFSET 0.852353 -38.7721 -0.655187
      CHANNELS 6 Xposition Yposition Zposition Zrotation Xrotation Yrotation
      JOINT r_foot
      {
        OFFSET 2.32622 -40.4017 -6.04875
        CHANNELS 6 Xposition Yposition Zposition Zrotation Xrotation Yrotation
        JOINT r_toes
        {
          OFFSET -0.779096 -9.8844 12.4959
          CHANNELS 6 Xposition Yposition Zposition Zrotation Xrotation Yrotation
          End Site
          {
            OFFSET 0 0 0.1
          }
        }
      }
    }
  }
}
MOTION
Frames: 8
Frame Time: 0.016667
-9.52457 91.0704 74.0515 7.77848 11.02 95.3759 0 5.07867 -1.15138 -6.4945 1.44882 0.786029 0 5.61661 1.07143 -5.10237 1.47488 -0.206602 -1.02604e-17 5.98978 0.11501 -3.75152 1.86993 -0.163045 -1.10457e-17 6.50583 -0.443523 -2.47917 1.79532 -0.184001 -1.97295e-17 7.60548 -1.50593 -1.14226 1.29203 0.134476 -2.53307e-17 9.49737 -0.914492 0.356747 1.01773 -0.242478 -2.90401e-17 10.5513 1.57691 -0.00500406 0.909011 -0.053856 -1.29193e-17 4.78644 0.715339 0.509664 -2.18638 -1.8989 -1.8116e-17 4.82109 0.421791 2.03713 -4.49392 -1.05395 -2.00958e-17 4.83041 0.765062 5.85186 -2.66735 0.0862903 1.23299 -7.60731 7.53374 1.76122 4.5832 -2.15585 12.9547 3.2495 -3.26872 -77.9275 25.7721 -4.78029 29.2081 0.0598081 0.137039 1.07425 -0.0431336 -5.18443 24.234 0.0496219 0.113701 -1.70831 -25.1676 -1.62851 -1.23299 -7.60729 7.53365 5.02434 5.17324 3.0953 -12.9547 3.2495 -3.26872 87.1151 15.2428 6.35387 -29.2081 0.0598081 0.137039 -0.75398 -0.0199292 3.63573 -24.234 0.0496218 0.113702 1.58537 -19.7481 4.23088 9.23673 -4.20556 2.0327 -8.48563 6.0615 -11.0728 -0.852353 -38.7721 -0.655187 -0.766522 2.86279 -0.0308231 -2.32622 -40.4017 -6.04875 -3.39059 -2.34826 15.6258 0.779096 -9.8844 12.4959 -1.11897e-15 -8.42696e-16 5.99814e-17 -9.23673 -4.20556 2.0327 -12.6217 -7.51894 10.9793 0.852353 -38.7721 -0.655187 3.96207 14.5825 -0.251065 2.32622 -40.4017 -6.04875 -1.15585 -7.99714 -15.4624 -0.779096 -9.8844 12.4959 9.15704e-16 -6.30265e-16 -1.28058e-14 
-9.5463 91.0531 74.1029 7.74655 11.0566 95.5034 0 5.07867 -1.15138 -6.50017 1.50843 0.779796 0 5.61661 1.07143 -5.11037 1.50445 -0.214332 -1.02604e-17 5.98978 0.11501 -3.75898 1.86593 -0.170746 -1.10457e-17 6.50583 -0.443523 -2.48564 1.73408 -0.192324 -1.97295e-17 7.60548 -1.50593 -1.14803 1.20844 0.126398 -2.53307e-17 9.49737 -0.914492 0.347682 0.910837 -0.252541 -2.90401e-17 10.5513 1.57691 -0.00518546 0.922222 -0.0551081 -1.29193e-17 4.78644 0.715339 0.520118 -1.94797 -1.83221 -1.8116e-17 4.82109 0.421791 1.99637 -4.40607 -1.02611 -2.00958e-17 4.83041 0.765062 5.84206 -2.66305 0.0782733 1.23299 -7.60731 7.53374 1.91138 4.57885 -2.04056 12.9547 3.2495 -3.26872 -78.1444 25.752 -4.45093 29.2081 0.0598081 0.137039 1.112 -0.0464223 -5.3671 24.234 0.0496219 0.113701 -1.7078 -25.121 -1.65994 -1.23299 -7.60729 7.53365 4.9158 5.13979 2.99498 -12.9547 3.2495 -3.26872 87.378 15.2047 5.99636 -29.2081 0.0598081 0.137039 -0.809474 -0.0232982 3.90372 -24.234 0.0496218 0.113702 1.59627 -19.525 4.31232 9.23673 -4.20556 2.0327 -8.52261 6.0781 -11.2483 -0.852353 -38.7721 -0.655187 -0.740935 2.76722 -0.0304118 -2.32622 -40.4017 -6.04875 -3.38261 -2.36874 15.6159 0.779096 -9.8844 12.4959 -3.92276e-16 -8.08479e-16 2.57647e-17 -9.23673 -4.20556 2.0327 -12.6836 -7.53709 10.8762 0.852353 -38.7721 -0.655187 3.96094 14.5785 -0.250853 2.32622 -40.4017 -6.04875 -1.17086 -8.04452 -15.4641 -0.779096 -9.8844 12.4959 -2.10841e-15 -5.00323e-16 -1.26759e-14 
-9.56794 91.0388 74.1571 7.74888 11.0842 95.6036 0 5.07867 -1.15138 -6.5023 1.57271 0.773629 0 5.61661 1.07143 -5.11578 1.53656 -0.221634 -1.02604e-17 5.98978 0.11501 -3.76472 1.86267 -0.177856 -1.10457e-17 6.50583 -0.443523 -2.49077 1.67058 -0.200094 -1.97295e-17 7.60548 -1.50593 -1.1528 1.12282 0.11865 -2.53307e-17 9.49737 -0.914492 0.339454 0.800108 -0.263177 -2.90401e-17 10.5513 1.57691 -0.00504873 0.936397 -0.0565294 -1.29193e-17 4.78644 0.715339 0.535559 -1.72486 -1.73192 -1.8116e-17 4.82109 0.421791 1.95978 -4.31755 -0.982935 -2.00958e-17 4.83041 0.765062 5.83192 -2.62449 0.0508514 1.23299 -7.60731 7.53374 2.0533 4.58059 -1.93084 12.9547 3.2495 -3.26872 -78.3778 25.729 -4.1241 29.2081 0.0598081 0.137039 1.15325 -0.0501543 -5.56675 24.234 0.0496219 0.113701 -1.68907 -25.0315 -1.65221 -1.23299 -7.60729 7.53365 4.80759 5.09906 2.90218 -12.9547 3.2495 -3.26872 87.6347 15.1196 5.66082 -29.2081 0.0598081 0.137039 -0.876245 -0.0276974 4.22627 -24.234 0.0496218 0.113702 1.61957 -19.2313 4.34289 9.23673 -4.20556 2.0327 -8.54652 6.13881 -11.5398 -0.852353 -38.7721 -0.655187 -0.70683 2.63984 -0.0297972 -2.32622 -40.4017 -6.04875 -3.37955 -2.37279 15.6094 0.779096 -9.8844 12.4959 -3.72721e-16 -8.07563e-16 2.48481e-17 -9.23673 -4.20556 2.0327 -12.7274 -7.5338 10.8296 0.852353 -38.7721 -0.655187 3.95973 14.5742 -0.250621 2.32622 -40.4017 -6.04875 -1.16089 -8.0745 -15.4637 -0.779096 -9.8844 12.4959 5.2788e-16 -6.18145e-16 -1.27937e-14 
-9.58955 91.0217 74.2103 7.7239 11.1096 95.7371 0 5.07867 -1.15138 -6.49535 1.62831 0.761405 0 5.61661 1.07143 -5.11372 1.56181 -0.233949 -1.02604e-17 5.98978 0.11501 -3.76441 1.854 -0.189693 -1.10457e-17 6.50583 -0.443523 -2.49092 1.60444 -0.212369 -1.97295e-17 7.60548 -1.50593 -1.15467 1.03844 0.105525 -2.53307e-17 9.49737 -0.914492 0.330746 0.69296 -0.279801 -2.90401e-17 10.5513 1.57691 -0.00517482 0.95094 -0.0576278 -1.29193e-17 4.78644 0.715339 0.547743 -1.53567 -1.64173 -1.8116e-17 4.82109 0.421791 1.91678 -4.22063 -0.945231 -2.00958e-17 4.83041 0.765062 5.81038 -2.56054 0.0281328 1.23299 -7.60731 7.53374 2.19503 4.58401 -1.82075 12.9547 3.2495 -3.26872 -78.6388 25.7273 -3.81289 29.2081 0.0598081 0.137039 1.19723 -0.0542922 -5.77963 24.234 0.0496219 0.113701 -1.66038 -24.8976 -1.62509 -1.23299 -7.60729 7.53365 4.70185 5.0578 2.82458 -12.9547 3.2495 -3.26872 87.86 15.0352 5.34668 -29.2081 0.0598081 0.137039 -0.948763 -0.0329031 4.57672 -24.234 0.0496218 0.113702 1.63827 -18.9576 4.36699 9.23673 -4.20556 2.0327 -8.56475 6.18 -11.9228 -0.852353 -38.7721 -0.655187 -0.669975 2.50217 -0.0290478 -2.32622 -40.4017 -6.04875 -3.37635 -2.38711 15.6002 0.779096 -9.8844 12.4959 4.02853e-16 -7.83326e-16 6.11383e-19 -9.23673 -4.20556 2.0327 -12.7758 -7.55166 10.744 0.852353 -38.7721 -0.655187 3.96125 14.5796 -0.250911 2.32622 -40.4017 -6.04875 -1.16834 -8.11334 -15.4635 -0.779096 -9.8844 12.4959 -1.34258e-15 -5.36374e-16 -1.27119e-14 
-9.60646 91.0006 74.2695 7.69344 11.1412 95.8514 0 5.07867 -1.15138 -6.48001 1.69168 0.747285 0 5.61661 1.07143 -5.10502 1.59158 -0.247081 -1.02604e-17 5.98978 0.11501 -3.75905 1.8453 -0.202367 -1.10457e-17 6.50583 -0.443523 -2.48777 1.53113 -0.225451 -1.97295e-17 7.60548 -1.50593 -1.15478 0.942684 0.0909994 -2.53307e-17 9.49737 -0.914492 0.321217 0.569613 -0.297224 -2.90401e-17 10.5513 1.57691 -0.0055758 0.965727 -0.0587689 -1.29193e-17 4.78644 0.715339 0.557089 -1.34997 -1.57003 -1.8116e-17 4.82109 0.421791 1.86895 -4.11725 -0.915558 -2.00958e-17 4.83041 0.765062 5.7842 -2.50245 0.0333284 1.23299 -7.60731 7.53374 2.32691 4.59414 -1.71931 12.9547 3.2495 -3.26872 -78.9078 25.7146 -3.50386 29.2081 0.0598081 0.137039 1.23901 -0.0583764 -5.98196 24.234 0.0496219 0.113701 -1.65801 -24.7371 -1.60504 -1.23299 -7.60729 7.53365 4.56907 5.01922 2.74486 -12.9547 3.2495 -3.26872 88.0848 14.9704 5.03859 -29.2081 0.0598081 0.137039 -1.02465 -0.0388282 4.9436 -24.234 0.0496218 0.113702 1.65112 -18.6882 4.38572 9.23673 -4.20556 2.0327 -8.58573 6.21309 -12.214 -0.852353 -38.7721 -0.655187 -0.635947 2.37505 -0.0282771 -2.32622 -40.4017 -6.04875 -3.36793 -2.41846 15.5914 0.779096 -9.8844 12.4959 4.22417e-16 -7.82715e-16 2.88531e-33 -9.23673 -4.20556 2.0327 -12.8219 -7.57248 10.6592 0.852353 -38.7721 -0.655187 3.9611 14.5791 -0.250882 2.32622 -40.4017 -6.04875 -1.20341 -8.17291 -15.4641 -0.779096 -9.8844 12.4959 -2.55485e-15 -4.8576e-16 -1.26613e-14 
-9.61631 90.9782 74.3344 7.66549 11.1685 95.9525 0 5.07867 -1.15138 -6.46398 1.75236 0.733614 0 5.61661 1.07143 -5.09511 1.62021 -0.259472 -1.02604e-17 5.98978 0.11501 -3.75235 1.83687 -0.214317 -1.10457e-17 6.50583 -0.443523 -2.48316 1.46049 -0.23783 -1.97295e-17 7.60548 -1.50593 -1.15332 0.850749 0.0769602 -2.53307e-17 9.49737 -0.914492 0.313455 0.449326 -0.314782 -2.90401e-17 10.5513 1.57691 -0.00574108 0.979146 -0.0603168 -1.29193e-17 4.78644 0.715339 0.569738 -1.16119 -1.48846 -1.8116e-17 4.82109 0.421791 1.831 -4.03192 -0.881019 -2.00958e-17 4.83041 0.765062 5.75519 -2.44862 0.00970517 1.23299 -7.60731 7.53374 2.47806 4.60055 -1.61592 12.9547 3.2495 -3.26872 -79.2148 25.7125 -3.20836 29.2081 0.0598081 0.137039 1.27927 -0.0624532 -6.17701 24.234 0.0496219 0.113701 -1.64066 -24.5742 -1.5707 -1.23299 -7.60729 7.53365 4.42323 4.97434 2.66034 -12.9547 3.2495 -3.26872 88.3263 14.8921 4.7654 -29.2081 0.0598081 0.137039 -1.09912 -0.0451185 5.30382 -24.234 0.0496218 0.113702 1.65311 -18.3912 4.3815 9.23673 -4.20556 2.0327 -8.59946 6.24286 -12.4567 -0.852353 -38.7721 -0.655187 -0.605747 2.26223 -0.0275299 -2.32622 -40.4017 -6.04875 -3.35796 -2.45873 15.5831 0.779096 -9.8844 12.4959 3.46302e-17 -7.94833e-16 1.21184e-17 -9.23673 -4.20556 2.0327 -12.8554 -7.59848 10.6106 0.852353 -38.7721 -0.655187 3.96406 14.5896 -0.251444 2.32622 -40.4017 -6.04875 -1.24115 -8.2371 -15.4647 -0.779096 -9.8844 12.4959 -1.03305e-15 -5.45129e-16 -1.27207e-14 
-9.61985 90.9583 74.4021 7.65601 11.1849 96.0384 0 5.07867 -1.15138 -6.44342 1.82073 0.7203 0 5.61661 1.07143 -5.08053 1.65457 -0.270785 -1.02604e-17 5.98978 0.11501 -3.74179 1.83299 -0.22513 -1.10457e-17 6.50583 -0.443523 -2.47551 1.3925 -0.248996 -1.97295e-17 7.60548 -1.50593 -1.14945 0.759137 0.0636911 -2.53307e-17 9.49737 -0.914492 0.307587 0.327706 -0.331696 -2.90401e-17 10.5513 1.57691 -0.00578126 0.991348 -0.0615084 -1.29193e-17 4.78644 0.715339 0.580015 -0.985433 -1.42619 -1.8116e-17 4.82109 0.421791 1.79537 -3.9534 -0.85496 -2.00958e-17 4.83041 0.765062 5.73086 -2.39241 -0.000569741 1.23299 -7.60731 7.53374 2.63394 4.6116 -1.52363 12.9547 3.2495 -3.26872 -79.5358 25.732 -2.92877 29.2081 0.0598081 0.137039 1.31621 -0.0663156 -6.35602 24.234 0.0496219 0.113701 -1.62766 -24.4529 -1.52857 -1.23299 -7.60729 7.53365 4.28172 4.93591 2.59008 -12.9547 3.2495 -3.26872 88.5398 14.8063 4.53297 -29.2081 0.0598081 0.137039 -1.17004 -0.0515481 5.64707 -24.234 0.0496218 0.113702 1.66358 -18.0995 4.36292 9.23673 -4.20556 2.0327 -8.59954 6.27702 -12.6284 -0.852353 -38.7721 -0.655187 -0.58301 2.17729 -0.0269281 -2.32622 -40.4017 -6.04875 -3.3366 -2.49851 15.5747 0.779096 -9.8844 12.4959 -3.62939e-16 -8.07257e-16 2.45424e-17 -9.23673 -4.20556 2.0327 -12.8705 -7.6064 10.5666 0.852353 -38.7721 -0.655187 3.96519 14.5936 -0.251659 2.32622 -40.4017 -6.04875 -1.27672 -8.28667 -15.4647 -0.779096 -9.8844 12.4959 1.69438e-16 -5.95131e-16 -1.27707e-14 
-9.67197 90.9624 74.4125 7.64633 11.2088 96.111 0 5.07867 -1.15138 -6.41373 1.86392 0.70402 0 5.61661 1.07143 -5.05607 1.67918 -0.283529 -1.02604e-17 5.98978 0.11501 -3.72298 1.83799 -0.237292 -1.10457e-17 6.50583 -0.443523 -2.46079 1.36601 -0.261051 -1.97295e-17 7.60548 -1.50593 -1.1414 0.724143 0.0487718 -2.53307e-17 9.49737 -0.914492 0.30419 0.27941 -0.350243 -2.90401e-17 10.5513 1.57691 -0.00554166 0.995594 -0.062443 -1.29193e-17 4.78644 0.715339 0.58842 -0.873915 -1.35638 -1.8116e-17 4.82109 0.421791 1.76207 -3.92657 -0.825378 -2.00958e-17 4.83041 0.765062 5.66997 -2.37249 -0.0167967 1.23299 -7.60731 7.53374 2.72853 4.59683 -1.45406 12.9547 3.2495 -3.26872 -79.8338 25.7245 -2.79619 29.2081 0.0598081 0.137039 1.34924 -0.0698677 -6.51612 24.234 0.0496219 0.113701 -1.55957 -24.3864 -1.44458 -1.23299 -7.60729 7.53365 4.18616 4.87456 2.55598 -12.9547 3.2495 -3.26872 88.6078 14.668 4.47107 -29.2081 0.0598081 0.137039 -1.23539 -0.0578521 5.96351 -24.234 0.0496218 0.113702 1.67321 -17.7824 4.3112 9.23673 -4.20556 2.0327 -8.64347 6.2617 -12.7781 -0.852353 -38.7721 -0.655187 -0.565505 2.1119 -0.0264419 -2.32622 -40.4017 -6.04875 -3.36539 -2.43188 15.5717 0.779096 -9.8844 12.4959 1.5066e-17 -7.95444e-16 1.27297e-17 -9.23673 -4.20556 2.0327 -12.9337 -7.65885 10.5176 0.852353 -38.7721 -0.655187 3.96683 14.5994 -0.25197 2.32622 -40.4017 -6.04875 -1.24635 -8.20862 -15.462 -0.779096 -9.8844 12.4959 -9.64577e-16 -5.47881e-16 -1.27234e-14 
